<?xml version="1.0" encoding="UTF-8" standalone="no"?>
<!-- Created with Inkscape (http://www.inkscape.org/) -->

<svg
   width="400"
   height="15"
   viewBox="0 0 105.83333 3.96875"
   version="1.1"
   id="svg2213"
   inkscape:version="1.2.1 (9c6d41e410, 2022-07-14)"
   sodipodi:docname="bus-icon.svg"
   xml:space="preserve"
   xmlns:inkscape="http://www.inkscape.org/namespaces/inkscape"
   xmlns:sodipodi="http://sodipodi.sourceforge.net/DTD/sodipodi-0.dtd"
   xmlns="http://www.w3.org/2000/svg"
   xmlns:svg="http://www.w3.org/2000/svg"><sodipodi:namedview
     id="namedview2215"
     pagecolor="#505050"
     bordercolor="#eeeeee"
     borderopacity="1"
     inkscape:showpageshadow="0"
     inkscape:pageopacity="0"
     inkscape:pagecheckerboard="0"
     inkscape:deskcolor="#505050"
     inkscape:document-units="mm"
     showgrid="false"
     inkscape:zoom="2.9825757"
     inkscape:cx="186.91898"
     inkscape:cy="9.7231396"
     inkscape:window-width="1920"
     inkscape:window-height="1017"
     inkscape:window-x="-8"
     inkscape:window-y="-8"
     inkscape:window-maximized="1"
     inkscape:current-layer="layer1" /><defs
     id="defs2210" /><g
     inkscape:groupmode="layer"
     id="layer1"
     inkscape:label="backfgr"><g
       inkscape:groupmode="layer"
       id="layer3"
       inkscape:label="ref" /><path
       id="path413"
       style="fill:#000000;fill-rule:evenodd;stroke-width:0.0264583;stroke-linecap:round;stroke-linejoin:bevel"
       d="m 41.260129,-1.6624308 c 0,0 -0.627154,2.4778566 -0.282153,5.8337524 l 0.06873,0.2418457 2.92747,0.1999878 h 2.129069 c 0,-0.4640525 0.679706,-0.9508683 1.153418,-0.9529134 0.688703,-0.00297 1.286227,0.4105416 1.286227,0.9306925 h 5.134053 L 55.866989,2.400887 H 46.398834 V 1.0164754 h 9.547737 L 55.684055,0.75395915 h -0.31626 c -0.279309,0 -0.504362,-0.22453676 -0.504362,-0.50384522 V -0.0666626 l -0.332796,-0.33279622 v 0.64957275 c 0,0.27930846 -0.224539,0.50384522 -0.503845,0.50384522 h -5.179529 c -0.27931,0 -0.503845,-0.22453676 -0.503845,-0.50384522 v -1.05419922 c 0,-0.27930841 0.224535,-0.50436201 0.503845,-0.50436201 h 4.774385 L 53.27955,-1.6505452 Z m 14.806848,0.014469 0.339514,0.3395141 h 4.140316 c 0.27931,0 0.503845,0.2250536 0.503845,0.50436201 v 1.05419922 c 0,0.27930846 -0.224535,0.50384522 -0.503845,0.50384522 H 58.469415 L 59.430079,1.714624 56.554286,4.5909342 h 1.214396 c 0,0 -0.111583,-0.931726 1.197343,-0.931726 0,0 1.286226,-0.022481 1.286226,0.9539469 h 3.659725 c 0,0 0.243913,0.1769348 0.243913,-0.5105631 V 2.7279989 l -0.59893,-3.03857426 0.77618,0.0222209 0.332797,0.26613362 -0.02222,0.95343018 h 0.310575 v -0.95343018 l -0.565857,-0.56534017 h -0.942578 c 0,0 -0.02219,-0.41053916 -0.532267,-1.05368246 z m -13.717509,0.3395141 h 5.179012 c 0.279309,0 0.504362,0.2250536 0.504362,0.50436201 v 1.05419922 c 0,0.27930846 -0.225053,0.50384522 -0.504362,0.50384522 h -5.179012 c -0.279306,0 -0.504362,-0.22453676 -0.504362,-0.50384522 v -1.05419922 c 0,-0.27930841 0.225056,-0.50436201 0.504362,-0.50436201 z m 19.506303,0.89813643 h 0.940511 c 0.249276,0 0.450102,0.17391826 0.450102,0.39015706 V 3.9899373 c 0,0.2162389 -0.200826,0.3901571 -0.450102,0.3901571 h -0.940511 c -0.249277,0 -0.450102,-0.1739182 -0.450102,-0.3901571 v -4.01009111 c 0,-0.2162388 0.200825,-0.39015706 0.450102,-0.39015706 z" /></g><g
     inkscape:groupmode="layer"
     id="layer2"
     inkscape:label="rys" /></svg>
