<?xml version="1.0" encoding="UTF-8" standalone="no"?>
<!-- Created with Inkscape (http://www.inkscape.org/) -->

<svg
   width="400"
   height="15"
   viewBox="0 0 105.83333 3.9687503"
   version="1.1"
   id="svg5"
   sodipodi:docname="train-icon-new.svg"
   xml:space="preserve"
   inkscape:version="1.2.1 (9c6d41e410, 2022-07-14)"
   xmlns:inkscape="http://www.inkscape.org/namespaces/inkscape"
   xmlns:sodipodi="http://sodipodi.sourceforge.net/DTD/sodipodi-0.dtd"
   xmlns="http://www.w3.org/2000/svg"
   xmlns:svg="http://www.w3.org/2000/svg"><sodipodi:namedview
     id="namedview6"
     pagecolor="#505050"
     bordercolor="#eeeeee"
     borderopacity="1"
     inkscape:showpageshadow="0"
     inkscape:pageopacity="0"
     inkscape:pagecheckerboard="0"
     inkscape:deskcolor="#505050"
     showgrid="false"
     inkscape:zoom="2"
     inkscape:cx="194.25"
     inkscape:cy="25.5"
     inkscape:window-width="1920"
     inkscape:window-height="1017"
     inkscape:window-x="-8"
     inkscape:window-y="-8"
     inkscape:window-maximized="1"
     inkscape:current-layer="svg5" /><defs
     id="defs2" /><g
     inkscape:groupmode="layer"
     id="layer3"
     inkscape:label="pendo"
     style="display:inline"><path
       id="path1688"
       style="display:inline;fill:#000000;fill-rule:evenodd;stroke-width:0.265248"
       d="M 48.828342 0.017762987 C 46.358702 0.096149229 43.050389 1.4821435 41.698545 3.4526955 C 41.698545 3.958365 42.210142 3.9642922 42.210142 3.9642922 L 45.226495 3.9642922 L 45.729307 3.6413145 L 48.957017 3.6413145 L 49.390065 4.0175189 L 62.227008 4.0175189 L 62.64352 3.6707701 L 65.927557 3.6707701 L 66.326499 3.9875466 L 67.188462 3.9875466 C 67.369309 3.9875466 67.694891 3.7199106 67.694891 3.3648456 C 67.694891 2.0318425 67.709878 1.5255957 67.709878 0.63943048 C 67.709878 0.26972759 67.420061 0.017762987 67.039634 0.017762987 L 62.222357 0.017762987 L 48.828342 0.017762987 z M 69.166636 0.017762987 C 68.638446 0.017762987 68.213206 0.44300116 68.213206 0.97119318 L 68.213206 3.046002 C 68.213206 3.5741942 68.638446 3.9994322 69.166636 3.9994322 L 93.306765 3.9994322 C 93.834959 3.9994322 94.260196 3.5741942 94.260196 3.046002 L 94.260196 0.97119318 C 94.260196 0.44300116 93.834959 0.017762987 93.306765 0.017762987 L 69.166636 0.017762987 z M 95.758812 0.017762987 C 95.230622 0.017762987 94.805382 0.44300116 94.805382 0.97119318 L 94.805382 3.046002 C 94.805382 3.5741942 95.230622 3.9994322 95.758812 3.9994322 L 119.89894 3.9994322 C 120.42714 3.9994322 120.85237 3.5741942 120.85237 3.046002 L 120.85237 0.97119318 C 120.85237 0.44300116 120.42714 0.017762987 119.89894 0.017762987 L 95.758812 0.017762987 z M 122.13291 0.029648566 C 121.60211 0.029648566 121.41409 0.38051864 121.41409 0.87145767 C 121.41409 1.757623 121.43735 1.9708645 121.43735 3.3038674 C 121.43735 3.5964072 121.41117 4.0081719 122.01612 3.9994322 L 122.80574 3.9994322 L 123.20468 3.6826556 L 126.48872 3.6826556 L 126.90523 4.0294045 L 134.71251 4.0294045 L 136.19149 2.550425 L 127.32795 2.550425 L 127.32795 1.8998187 L 127.32795 1.8972349 L 127.32795 1.2466286 L 136.19149 1.2466286 L 134.97451 0.029648566 L 126.90988 0.029648566 L 122.13291 0.029648566 z M 137.66995 0.029648566 L 139.53754 1.8972349 L 139.54012 1.8972349 L 139.53909 1.8987852 L 139.54012 1.8998187 L 139.53754 1.8998187 L 137.40795 4.0294045 L 139.74217 4.0294045 L 140.17522 3.6532001 L 143.40293 3.6532001 L 143.90575 3.9761778 L 146.92262 3.9761778 C 146.92262 3.9761778 147.4337 3.9702968 147.4337 3.4645811 C 146.08185 1.4940294 144.61916 0.16661475 140.3039 0.029648566 L 137.66995 0.029648566 z M 91.667589 0.68232192 L 93.073705 0.68232192 C 93.151445 0.68232192 93.214265 0.73574741 93.214265 0.80221125 L 93.214265 3.3188536 C 93.214265 3.3853145 93.151445 3.4392596 93.073705 3.4392596 L 91.667589 3.4392596 C 91.589856 3.4392596 91.527546 3.3853135 91.527546 3.3188536 L 91.527546 0.80221125 C 91.527546 0.73575078 91.589849 0.68232192 91.667589 0.68232192 z M 95.982571 0.68232192 L 97.388687 0.68232192 C 97.466431 0.68232192 97.52873 0.73575081 97.52873 0.80221125 L 97.52873 3.3188536 C 97.52873 3.3853135 97.466427 3.4392596 97.388687 3.4392596 L 95.982571 3.4392596 C 95.904831 3.4392596 95.842011 3.3853145 95.842011 3.3188536 L 95.842011 0.80221125 C 95.842011 0.73574738 95.904831 0.68232192 95.982571 0.68232192 z M 49.803477 1.3396462 L 66.062433 1.3396462 C 66.140173 1.3396462 66.202993 1.3930715 66.202993 1.4595355 L 66.202993 2.4796283 C 66.202993 2.5460892 66.140173 2.5995176 66.062433 2.5995176 L 49.803477 2.5995176 C 49.725758 2.5995176 49.662917 2.5460882 49.662917 2.4796283 L 49.662917 1.4595355 C 49.662917 1.3930754 49.725777 1.3396462 49.803477 1.3396462 z M 69.803807 1.3396462 L 90.543626 1.3396462 C 90.621366 1.3396462 90.684186 1.3930715 90.684186 1.4595355 L 90.684186 2.4796283 C 90.684186 2.5460892 90.621366 2.5995176 90.543626 2.5995176 L 69.803807 2.5995176 C 69.726084 2.5995176 69.663764 2.5460882 69.663764 2.4796283 L 69.663764 1.4595355 C 69.663764 1.3930754 69.726107 1.3396462 69.803807 1.3396462 z M 98.529186 1.3396462 L 119.23593 1.3396462 C 119.31364 1.3396462 119.37598 1.3930745 119.37598 1.4595355 L 119.37598 2.4796283 C 119.37598 2.5460882 119.31365 2.5995176 119.23593 2.5995176 L 98.529186 2.5995176 C 98.451446 2.5995176 98.388626 2.5460882 98.388626 2.4796283 L 98.388626 1.4595355 C 98.388626 1.3930714 98.451446 1.3396462 98.529186 1.3396462 z "
       transform="translate(-41.614829,-0.02293063)" /></g></svg>
