<?xml version="1.0" encoding="UTF-8" standalone="no"?>
<!-- Created with Inkscape (http://www.inkscape.org/) -->

<svg
   width="400"
   height="15"
   viewBox="0 0 105.83333 3.96875"
   version="1.1"
   id="svg2213"
   inkscape:version="1.2.1 (9c6d41e410, 2022-07-14)"
   sodipodi:docname="train-icon-wag.svg"
   xmlns:inkscape="http://www.inkscape.org/namespaces/inkscape"
   xmlns:sodipodi="http://sodipodi.sourceforge.net/DTD/sodipodi-0.dtd"
   xmlns="http://www.w3.org/2000/svg"
   xmlns:svg="http://www.w3.org/2000/svg">
  <sodipodi:namedview
     id="namedview2215"
     pagecolor="#505050"
     bordercolor="#eeeeee"
     borderopacity="1"
     inkscape:showpageshadow="0"
     inkscape:pageopacity="0"
     inkscape:pagecheckerboard="0"
     inkscape:deskcolor="#505050"
     inkscape:document-units="mm"
     showgrid="false"
     inkscape:zoom="2.9825757"
     inkscape:cx="212.56795"
     inkscape:cy="40.568962"
     inkscape:window-width="1920"
     inkscape:window-height="1017"
     inkscape:window-x="-8"
     inkscape:window-y="-8"
     inkscape:window-maximized="1"
     inkscape:current-layer="layer5" />
  <defs
     id="defs2210" />
  <g
     inkscape:label="Warstwa 1"
     inkscape:groupmode="layer"
     id="layer1">
    <g
       inkscape:groupmode="layer"
       id="layer5"
       inkscape:label="wagony"
       transform="translate(98.400437,110.04879)">
      <path
         id="path1696"
         style="fill:#000000;fill-rule:evenodd;stroke-width:0.265248"
         d="m -15.7025,-110.33245 -0.01189,0.0465 h -0.08371 v 0.64544 h 0.107487 l -0.03101,0.0413 -0.466638,1.40508 0.134875,0.48472 h -0.224276 v 0.60049 h 0.403593 l 0.03566,0.0971 v 0.91054 h 1.049032 l 0.179317,-0.33487 h 0.815971 v 0.33487 h 2.134236 v 0.15502 h 1.7575163 v -0.47438 h 2.124935 2.2882318 0.03462 2.074292 l 1.052649,-1.05265 h -8.8635381 v -0.65061 -0.002 -0.6506 h 8.8635421 l -1.297596,-1.2976 h -1.829345 -0.03462 -7.6522461 z m 20.4612861,0 -2.561603,0.25838 h -3.12694096 l 1.94820196,1.9482 h 0.0031 l -0.001,0.002 0.001,5.2e-4 h -0.0031 l -2.059823,2.05982 v 0.11782 h 1.75751604 v -0.15502 H 2.8503731 v -0.33487 h 0.815971 l 0.179317,0.33487 h 1.049035 v -0.91054 l 0.0357,-0.0972 h 0.4036 v -0.60048 h -0.22428 l 0.13488,-0.48472 -0.46664,-1.40508 -0.031,-0.0413 h 0.10749 v -0.64544 h -0.0837 z m -99.7484381,0.31057 c -0.528192,0 -0.95343,0.42524 -0.95343,0.95343 v 2.0743 c 0,0.52819 0.425238,0.95343 0.95343,0.95343 h 24.140129 c 0.528194,0 0.953431,-0.42524 0.953431,-0.95343 v -2.0743 c 0,-0.52819 -0.425237,-0.95343 -0.953431,-0.95343 z m 26.591143,0 c -0.528194,0 -0.953431,0.42524 -0.953431,0.95343 v 2.0743 c 0,0.52819 0.425237,0.95343 0.953431,0.95343 h 24.140129 c 0.528191,0 0.95343,-0.42524 0.95343,-0.95343 v -2.0743 c 0,-0.52819 -0.425239,-0.95343 -0.95343,-0.95343 z m 26.591659,0 c -0.528194,0 -0.95343,0.42524 -0.95343,0.95343 v 2.0743 c 0,0.52819 0.425236,0.95343 0.95343,0.95343 h 24.140129 c 0.528197,0 0.95343,-0.42524 0.95343,-0.95343 v -2.0743 c 0,-0.52819 -0.425233,-0.95343 -0.95343,-0.95343 z m -30.647743,0.86558 h 1.406116 c 0.07774,0 0.14056,0.0493 0.14056,0.11111 v 2.34042 c 0,0.0618 -0.06282,0.11163 -0.14056,0.11163 h -1.406116 c -0.07773,0 -0.140043,-0.0498 -0.140043,-0.11163 v -2.34042 c 0,-0.0618 0.0623,-0.11111 0.140043,-0.11111 z m 4.231783,0 h 1.406116 c 0.07772,0 0.14056,0.0493 0.14056,0.11111 v 2.34042 c 0,0.0618 -0.06286,0.11163 -0.14056,0.11163 h -1.406116 c -0.07772,0 -0.140043,-0.0498 -0.140043,-0.11163 v -2.34042 c 0,-0.0618 0.06235,-0.11111 0.140043,-0.11111 z m 22.35936,0 h 1.406115 c 0.07774,0 0.14056,0.0493 0.14056,0.11111 v 2.34042 c 0,0.0618 -0.06282,0.11163 -0.14056,0.11163 h -1.406115 c -0.07773,0 -0.140043,-0.0498 -0.140043,-0.11163 v -2.34042 c 0,-0.0618 0.0623,-0.11111 0.140043,-0.11111 z m 4.2323,0 h 1.406115 c 0.07772,0 0.14056,0.0493 0.14056,0.11111 v 2.34042 c 0,0.0618 -0.06286,0.11163 -0.14056,0.11163 h -1.406115 c -0.07772,0 -0.140044,-0.0498 -0.140044,-0.11163 v -2.34042 c 0,-0.0618 0.06234,-0.11111 0.140044,-0.11111 z m 22.359359,0 h 1.406116 c 0.07774,0 0.140559,0.0493 0.140559,0.11111 v 2.34042 c 0,0.0618 -0.06282,0.11163 -0.140559,0.11163 h -1.406116 c -0.07773,0 -0.140043,-0.0498 -0.140043,-0.11163 v -2.34042 c 0,-0.0618 0.0623,-0.11111 0.140043,-0.11111 z m -75.220217,0.52555 h 20.872629 c 0.07773,0 0.140043,0.0498 0.140043,0.11163 v 1.11776 c 0,0.0618 -0.06231,0.11162 -0.140043,0.11162 h -20.872629 c -0.07772,0 -0.140043,-0.0498 -0.140043,-0.11162 v -1.11776 c 0,-0.0618 0.06234,-0.11163 0.140043,-0.11163 z m 28.840101,0 h 18.62367 c 0.07773,0 0.140043,0.0498 0.140043,0.11163 v 1.11776 c 0,0.0618 -0.0623,0.11162 -0.140043,0.11162 h -18.62367 c -0.07772,0 -0.140043,-0.0498 -0.140043,-0.11162 v -1.11776 c 0,-0.0618 0.06234,-0.11163 0.140043,-0.11163 z m 26.591659,0 h 18.62367 c 0.07773,0 0.140043,0.0498 0.140043,0.11163 v 1.11776 c 0,0.0618 -0.0623,0.11162 -0.140043,0.11162 h -18.62367 c -0.07772,0 -0.140043,-0.0498 -0.140043,-0.11162 v -1.11776 c 0,-0.0618 0.06234,-0.11163 0.140043,-0.11163 z" />
    </g>
  </g>
</svg>
